<svg id="Layer_1" data-name="Layer 1" xmlns="http://www.w3.org/2000/svg" viewBox="0 0 90 90"><defs><style>.cls-1{fill:#264de4;}.cls-2{fill:#2965f1;}.cls-3{fill:#ebebeb;}.cls-4{fill:#fff;}</style></defs><polygon id="polygon2989" class="cls-1" points="84.81 0 77.56 81.26 44.95 90.3 12.44 81.27 5.19 0 84.81 0"/><polygon id="polygon2991" class="cls-2" points="71.35 76.08 77.55 6.64 45 6.64 45 83.39 71.35 76.08"/><polygon id="polygon2993" class="cls-3" points="21.8 36.79 22.7 46.76 45 46.76 45 36.79 21.8 36.79"/><polygon id="polygon2995" class="cls-3" points="45 16.61 44.97 16.61 20.01 16.61 20.91 26.58 45 26.58 45 16.61"/><polygon id="polygon2997" class="cls-3" points="45 73.05 45 62.67 44.96 62.69 33.85 59.69 33.15 51.74 27.75 51.74 23.14 51.74 24.54 67.39 44.95 73.06 45 73.05"/><polygon id="polygon3005" class="cls-4" points="57.24 46.76 56.08 59.68 44.97 62.68 44.97 73.05 65.4 67.39 65.55 65.7 67.89 39.46 68.14 36.79 69.93 16.61 44.97 16.61 44.97 26.58 59.01 26.58 58.1 36.79 44.97 36.79 44.97 46.76 57.24 46.76"/></svg>