<svg id="Layer_1" data-name="Layer 1" xmlns="http://www.w3.org/2000/svg" viewBox="0 0 90 90"><defs><style>.cls-1{fill:#099cec;}</style></defs><g id="_97-docker" data-name="97-docker"><rect class="cls-1" x="39.91" y="23.72" width="9.29" height="8.45"/><rect class="cls-1" x="39.91" y="33.87" width="9.29" height="8.35"/><rect class="cls-1" x="28.93" y="23.72" width="9.29" height="8.45"/><rect class="cls-1" x="50.91" y="33.86" width="9.29" height="8.35"/><rect class="cls-1" x="39.91" y="13.49" width="9.29" height="8.54"/><rect class="cls-1" x="17.95" y="23.72" width="9.29" height="8.45"/><rect class="cls-1" x="28.93" y="33.86" width="9.29" height="8.35"/><path class="cls-1" d="M88.13,37.78c-2-1.36-6.69-1.86-10.28-1.18-.46-3.38-2.35-6.32-5.78-9l-2-1.31-1.3,2c-2.59,3.91-3.3,10.35-.52,14.6a14.15,14.15,0,0,1-6.81,1.5H.34A29.55,29.55,0,0,0,6.53,67.2c5.22,6.17,13,9.31,23.26,9.31,22.13,0,38.51-10.2,46.18-28.72,3,.06,9.5,0,12.84-6.35.21-.36.92-1.86,1.19-2.41Z"/><polygon class="cls-1" points="16.27 33.86 16.26 33.86 6.98 33.86 6.98 42.21 16.27 42.21 16.27 33.86"/><rect class="cls-1" x="17.95" y="33.86" width="9.29" height="8.35"/></g></svg>