<svg id="Layer_1" data-name="Layer 1" xmlns="http://www.w3.org/2000/svg" viewBox="0 0 90 90"><defs><style>.cls-1{fill:#f7df1e;}</style></defs><rect class="cls-1" y="0.06" width="90" height="90"/><path d="M60.46,70.37c1.81,3,4.17,5.14,8.34,5.14,3.5,0,5.74-1.75,5.74-4.17,0-2.9-2.3-3.93-6.15-5.62l-2.12-.91c-6.1-2.6-10.16-5.85-10.16-12.74C56.11,45.73,61,40.9,68.5,40.9c5.38,0,9.24,1.87,12,6.77L73.94,51.9c-1.45-2.6-3-3.62-5.44-3.62s-4,1.57-4,3.62c0,2.54,1.57,3.56,5.2,5.14l2.12.9C79,61,83,64.16,83,71.23,83,78.84,77,83,69,83c-7.86,0-12.93-3.74-15.42-8.65Zm-29.88.73c1.33,2.36,2.54,4.35,5.44,4.35s4.54-1.08,4.54-5.31V41.38H49V70.25C49,79,43.88,83,36.38,83c-6.77,0-10.69-3.51-12.68-7.73Z"/></svg>