<svg id="Layer_1" data-name="Layer 1" xmlns="http://www.w3.org/2000/svg" viewBox="0 0 90 90"><defs><style>.cls-1{fill:#13aa52;}.cls-2{fill:#b8c4c2;}.cls-3{fill:#12924f;}.cls-4{fill:#21313c;}</style></defs><path class="cls-1" d="M51,27.29c-1.43-6.32-4.42-8-5.19-9.2a13.15,13.15,0,0,1-.83-1.63,1.67,1.67,0,0,1-.59,1.34A15.13,15.13,0,0,0,39,29.17C38.66,35.88,43.91,40,44.6,40.43a1.53,1.53,0,0,0,1.5-.24A13,13,0,0,0,51,27.29Z"/><path class="cls-2" d="M45.16,36.87a13.51,13.51,0,0,1-.56,3.57s.21,1.58.37,3.25h.55a29.41,29.41,0,0,1,.6-3.5C45.41,39.84,45.19,38.32,45.16,36.87Z"/><path class="cls-3" d="M46.12,40.19c-.71-.33-.92-1.89-1-3.33a68.39,68.39,0,0,0,.16-7.16c0-1.26,0-11.59-.31-13.11a13.1,13.1,0,0,0,.77,1.49c.76,1.19,3.76,2.88,5.19,9.2A13.06,13.06,0,0,1,46.12,40.19Z"/><path class="cls-4" d="M86.93,60.41a1.53,1.53,0,1,1,.07,0Zm0-3a1.42,1.42,0,1,0,1.41,1.43h0A1.4,1.4,0,0,0,87,57.44Zm.37,2.4L86.9,59h-.32v.86h-.23v-2h.58c.43,0,.61.19.61.56a.47.47,0,0,1-.39.52l.41.89Zm-.71-1.07h.34c.27,0,.38-.09.38-.34s-.1-.34-.41-.34h-.31Z"/><path class="cls-4" d="M63.79,59a3.57,3.57,0,0,0,2,.48,3.88,3.88,0,0,0,2.82-1,5.34,5.34,0,0,0,1.58-4.23,5,5,0,0,0-2.32-4.57,6.18,6.18,0,0,0-3.33-.77,2.76,2.76,0,0,0-1,.12.47.47,0,0,0-.18.28c0,.36,0,3.06,0,4.67s0,3.93,0,4.21A1.21,1.21,0,0,0,63.79,59Zm-4-11c.34,0,1.63,0,2.23,0,1.13,0,1.9,0,4,0a6.49,6.49,0,0,1,4.3,1.38,5.75,5.75,0,0,1,2,4.54A5.9,5.9,0,0,1,69.86,59a8.11,8.11,0,0,1-5.06,1.42c-1.2,0-3.26,0-5-.05h0c-.08-.16.15-.78.29-.79a3.19,3.19,0,0,0,.81-.16c.36-.15.45-.34.49-1,.05-1.23,0-2.69,0-4.36,0-1.19,0-3.51,0-4.24s-.32-.77-.85-.89c-.37-.07-.75-.14-1.12-.18C59.38,48.64,59.69,48.11,59.8,48Z"/><path class="cls-4" d="M77.27,49c-.08,0-.18.21-.18.32,0,.71,0,2.57,0,3.86a.13.13,0,0,0,.11.1c.26,0,.9,0,1.44,0A3.4,3.4,0,0,0,80,53.1,1.87,1.87,0,0,0,81,51.34c0-1.72-1.2-2.37-3-2.37A2.94,2.94,0,0,0,77.27,49Zm4.54,7.91c0-1.74-1.28-2.73-3.62-2.73a8.93,8.93,0,0,0-1,0c-.06,0-.13.06-.13.1,0,1.25,0,3.25,0,4a1.31,1.31,0,0,0,.58.95,4,4,0,0,0,1.55.21A2.4,2.4,0,0,0,81.81,56.91ZM73.65,48c.18,0,.71.06,2.07.06s2.33,0,3.56,0c1.54,0,3.67.56,3.67,2.85a2.78,2.78,0,0,1-1.85,2.48s0,.05,0,.07c1.48.38,2.78,1.28,2.78,3a3.71,3.71,0,0,1-2.6,3.45,8.37,8.37,0,0,1-3.28.55c-.9,0-3.32-.09-4.66-.08-.14,0,.13-.69.26-.78a4,4,0,0,0,.9-.14c.48-.13.54-.28.6-1s0-2.81,0-4.37c0-2.14,0-3.58,0-4.3,0-.55-.21-.73-.6-.83s-.79-.12-1.2-.18C73.25,48.7,73.55,48.1,73.65,48Z"/><path class="cls-4" d="M1.85,60.41A.78.78,0,0,1,1.8,60a.81.81,0,0,1,.05-.27c.26,0,.52-.1.77-.16s.49-.28.51-.73c.05-1.07.06-3.08,0-4.48v0a.58.58,0,0,0-.18-.5,3.86,3.86,0,0,0-1.06-.47c-.17,0-.26-.14-.25-.25s.11-.22.32-.27a13.07,13.07,0,0,0,2.7-.69.37.37,0,0,1,.09.28,1.5,1.5,0,0,1,0,.2,6.28,6.28,0,0,0,0,.64.14.14,0,0,0,.17.13.19.19,0,0,0,.08,0,5,5,0,0,1,2.68-1.21,2.3,2.3,0,0,1,2,1.25.12.12,0,0,0,.11.07.13.13,0,0,0,.11-.06,5.35,5.35,0,0,1,2.77-1.26c1.64,0,2.62,1.22,2.62,3.28,0,.59,0,1.34,0,2s0,1.19,0,1.58a.53.53,0,0,0,.33.42,4.72,4.72,0,0,0,1,.25h0a1.46,1.46,0,0,1-.1.66h-.45c-.34,0-.81,0-1.35,0-1.09,0-1.66,0-2.21.05a2.1,2.1,0,0,1,0-.66c.23,0,.45-.09.67-.15s.45-.27.47-.73.07-3.21,0-3.89a1.74,1.74,0,0,0-1.81-1.54,3.17,3.17,0,0,0-1.8.69.29.29,0,0,0-.06.17h0A8.33,8.33,0,0,1,10,55.73v1.15c0,.8,0,1.55,0,2.11a.54.54,0,0,0,.42.55l.27.06.56.11a1.05,1.05,0,0,1,0,.5.38.38,0,0,1-.08.17c-.6,0-1.22,0-2.12,0L8,60.36l-.79,0a.85.85,0,0,1,0-.35.58.58,0,0,1,.06-.32l.25-.05A4.27,4.27,0,0,0,8,59.55c.3-.09.41-.25.43-.64a30.14,30.14,0,0,0,0-4,1.66,1.66,0,0,0-1.72-1.54,3.23,3.23,0,0,0-1.8.68.59.59,0,0,0-.17.42v1c0,1.28,0,2.86,0,3.56a.56.56,0,0,0,.49.55,2.1,2.1,0,0,0,.41.07L6,59.7a1.39,1.39,0,0,1-.06.67l-.64,0c-.37,0-.84,0-1.36,0s-1.06,0-1.42,0A2.79,2.79,0,0,1,1.85,60.41Z"/><path class="cls-4" d="M21.94,53a1.62,1.62,0,0,0-1,.27,2.7,2.7,0,0,0-1,2.51c0,2.33,1.16,4,2.83,4A1.76,1.76,0,0,0,24,59.31a3.17,3.17,0,0,0,.78-2.47C24.77,54.55,23.63,53,21.94,53Zm.32,7.58c-3,0-4.07-2.21-4.07-4.27A3.84,3.84,0,0,1,19.94,53a5.38,5.38,0,0,1,2.71-.79,3.78,3.78,0,0,1,3.89,4,4.12,4.12,0,0,1-1.85,3.66A5.08,5.08,0,0,1,22.26,60.59Z"/><path class="cls-4" d="M52.57,53a1.63,1.63,0,0,0-1,.27,2.73,2.73,0,0,0-1,2.51c0,2.33,1.16,4,2.83,4a1.8,1.8,0,0,0,1.23-.43,3.13,3.13,0,0,0,.78-2.47C55.4,54.55,54.25,53,52.57,53Zm.32,7.58c-3,0-4.08-2.21-4.08-4.27A3.84,3.84,0,0,1,50.56,53a5.41,5.41,0,0,1,2.71-.79,3.78,3.78,0,0,1,3.9,4,4.12,4.12,0,0,1-1.86,3.66A5.08,5.08,0,0,1,52.89,60.59Z"/><path class="cls-4" d="M42.44,52.93c-.93,0-1.53.73-1.53,1.86s.52,2.48,2,2.48a1.46,1.46,0,0,0,.93-.35,2.35,2.35,0,0,0,.56-1.63C44.37,53.82,43.65,52.93,42.44,52.93Zm-.12,7.82a1.6,1.6,0,0,0-.74.19c-.74.47-1.08.93-1.08,1.48a1.54,1.54,0,0,0,.63,1.27,3.11,3.11,0,0,0,2.12.65c1.8,0,2.61-1,2.61-1.92a1.37,1.37,0,0,0-1-1.37A8,8,0,0,0,42.32,60.75Zm.13,4.59a3.82,3.82,0,0,1-2.52-.74A2.36,2.36,0,0,1,39,62.85a1.34,1.34,0,0,1,.36-.89A8.17,8.17,0,0,1,41,60.66a.11.11,0,0,0,.05-.09.09.09,0,0,0-.06-.08,1.75,1.75,0,0,1-1.16-1.13.08.08,0,0,0,0,0c0-.12,0-.22.11-.32a4.29,4.29,0,0,1,.49-.31,5.65,5.65,0,0,0,.81-.53.12.12,0,0,0,0-.18l0,0a2.58,2.58,0,0,1-1.84-2.72A2.68,2.68,0,0,1,40.46,53,5.19,5.19,0,0,1,43,52.16h0a5.27,5.27,0,0,1,1.94.43,3.17,3.17,0,0,0,1.14.18,1.56,1.56,0,0,0,1.24-.47,1.35,1.35,0,0,1,.06.35,1.32,1.32,0,0,1-.22.82,1,1,0,0,1-.77.34h-.09a2.43,2.43,0,0,1-.47-.08l-.08,0s0,.08,0,.12a0,0,0,0,1,0,0,5,5,0,0,1,.11.76,2.81,2.81,0,0,1-1.2,2.56,4,4,0,0,1-2.06.79l-.24,0-.24,0h0c-.14,0-.49.21-.49.52s.16.58.92.63l.49,0A15.88,15.88,0,0,1,46,59.6a2,2,0,0,1,1.32,1.9,3.86,3.86,0,0,1-2.48,3.29,5.31,5.31,0,0,1-2.35.52"/><path class="cls-4" d="M37.85,59.72a3.68,3.68,0,0,1-1.15-.3.62.62,0,0,1-.14-.28c0-.62,0-2.4,0-3.56A4.22,4.22,0,0,0,36,53.2a2.39,2.39,0,0,0-2-1.07,4.74,4.74,0,0,0-2.68,1.26s-.15.15-.15,0,0-.59.05-.85a.4.4,0,0,0-.13-.36,12.21,12.21,0,0,1-2.73.71c-.42.08-.54.49-.08.64h0a3.79,3.79,0,0,1,1,.45.53.53,0,0,1,.16.49c0,1.33,0,3.37,0,4.47,0,.44-.15.59-.46.68h0c-.24.06-.48.1-.74.14a1.08,1.08,0,0,0,0,.79c.2,0,1.22-.06,2.07-.06,1.16,0,1.76.06,2.06.06a1.11,1.11,0,0,0,.08-.79,4.51,4.51,0,0,1-.82-.12c-.32-.08-.41-.24-.42-.59,0-.93,0-2.92,0-4.26a.82.82,0,0,1,.21-.65A2.63,2.63,0,0,1,33,53.5a1.81,1.81,0,0,1,1.22.41A1.61,1.61,0,0,1,34.76,55c.08.75.06,2.26.06,3.57,0,.71-.06.89-.32,1a3.2,3.2,0,0,1-.82.16,1,1,0,0,0,0,.79c.51,0,1.12-.06,2-.06,1.11,0,1.8.06,2.08.06A1.1,1.1,0,0,0,37.85,59.72Z"/></svg>