<svg id="Layer_1" data-name="Layer 1" xmlns="http://www.w3.org/2000/svg" viewBox="0 0 90 90"><defs><style>.cls-1,.cls-4{fill:#00758f;}.cls-2,.cls-3{fill:#f29111;}.cls-3,.cls-4{fill-rule:evenodd;}</style></defs><path class="cls-1" d="M22.07,64.66H18.66q-.18-8.64-1-16.23h0L12.45,64.66H9.85L4.69,48.43h0q-.57,7.29-.72,16.23H.83q.3-10.86,1.51-20.37H6.57l4.91,15h0l5-15h4q1.34,11.13,1.57,20.37"/><path class="cls-1" d="M36.85,49.63q-2.07,11.29-5.49,16.42Q28.71,70,25.54,70a5.67,5.67,0,0,1-2.08-.51V67.67a9.68,9.68,0,0,0,1.42.09A3.43,3.43,0,0,0,27.26,67a3,3,0,0,0,1.09-2.23,15.06,15.06,0,0,0-.85-3.47L23.76,49.63h3.35l2.68,8.69a11.62,11.62,0,0,1,.76,4.13,56.87,56.87,0,0,0,3.08-12.82Z"/><polygon class="cls-2" points="82.22 64.66 72.54 64.66 72.54 44.29 75.8 44.29 75.8 62.15 82.22 62.15 82.22 64.66"/><path class="cls-3" d="M70,65.15,66.26,63.3a6.72,6.72,0,0,0,.94-.91q2.39-2.8,2.38-8.29Q69.58,44,61.65,44a7.47,7.47,0,0,0-6.06,2.57q-2.39,2.8-2.39,8.26c0,3.58.71,6.21,2.11,7.88C56.6,64.2,58.54,65,61.14,65a9.25,9.25,0,0,0,2.66-.36l4.88,2.84ZM57.88,60.58q-1.25-2-1.24-6.39,0-7.69,4.68-7.7a3.94,3.94,0,0,1,3.59,1.84c.82,1.33,1.24,3.44,1.24,6.34q0,7.76-4.68,7.75a3.91,3.91,0,0,1-3.59-1.84"/><path class="cls-2" d="M51.78,59a5.4,5.4,0,0,1-1.9,4.26,7.47,7.47,0,0,1-5.09,1.65A10.15,10.15,0,0,1,39,63l.87-1.75a9.88,9.88,0,0,0,4.37,1.21,4.57,4.57,0,0,0,2.88-.81,2.76,2.76,0,0,0,1.11-2.26c0-1.21-.84-2.25-2.39-3.11s-4.28-2.42-4.28-2.42a4.88,4.88,0,0,1-2.32-4.34,5.06,5.06,0,0,1,1.73-4A6.57,6.57,0,0,1,45.45,44a9.25,9.25,0,0,1,5.16,1.51l-.79,1.75a10,10,0,0,0-3.92-.85,3.47,3.47,0,0,0-2.41.76,2.53,2.53,0,0,0-.91,1.93c0,1.2.86,2.25,2.45,3.13s4.37,2.46,4.37,2.46A4.79,4.79,0,0,1,51.78,59"/><path class="cls-4" d="M86.31,37.47a11.37,11.37,0,0,0-4.77.69c-.37.15-1,.15-1,.62.2.19.22.51.4.78a5.57,5.57,0,0,0,1.27,1.5c.52.4,1,.79,1.58,1.13,1,.6,2,.94,3,1.53.55.35,1.09.79,1.63,1.16.27.19.44.51.79.64v-.08c-.18-.22-.23-.54-.4-.79s-.49-.46-.73-.71a12,12,0,0,0-2.56-2.48c-.79-.54-2.51-1.28-2.83-2.19l-.05-.05a10,10,0,0,0,1.7-.4c.83-.22,1.59-.17,2.45-.39.4-.1.79-.22,1.19-.34v-.23c-.45-.44-.77-1-1.23-1.45a33.39,33.39,0,0,0-4.06-3c-.77-.5-1.75-.81-2.56-1.23-.3-.15-.79-.22-1-.47a10.12,10.12,0,0,1-1-1.9c-.71-1.35-1.4-2.85-2-4.28a25.31,25.31,0,0,0-1.25-2.8,24.71,24.71,0,0,0-9.53-9.2,11.69,11.69,0,0,0-3.14-1c-.62,0-1.23-.08-1.85-.1a9.61,9.61,0,0,1-1.13-.86c-1.41-.89-5-2.81-6.05-.27-.67,1.6,1,3.17,1.55,4A12,12,0,0,1,56,17.1c.17.42.22.86.39,1.3a32.68,32.68,0,0,0,1.28,3.3,11.53,11.53,0,0,0,.91,1.52c.2.28.55.4.62.84a7.28,7.28,0,0,0-.57,1.85,10.82,10.82,0,0,0,.72,8.26c.39.62,1.33,2,2.58,1.45s.86-1.84,1.18-3.07c.07-.3,0-.49.17-.69v.05c.35.69.69,1.35,1,2a14.13,14.13,0,0,0,3.2,3.3c.59.44,1.06,1.2,1.8,1.48v-.08h0a2.68,2.68,0,0,0-.57-.49,11.91,11.91,0,0,1-1.28-1.48,31.48,31.48,0,0,1-2.75-4.47c-.4-.77-.74-1.6-1.06-2.37-.15-.29-.15-.74-.4-.88A9.26,9.26,0,0,0,62,30.63a14.49,14.49,0,0,0-.69,3.72c-.09,0,0,0-.09,0-.79-.19-1.06-1-1.36-1.69a10.7,10.7,0,0,1-.22-6.57c.17-.52.91-2.14.62-2.63s-.64-.74-.91-1.11a9.84,9.84,0,0,1-.89-1.58c-.59-1.37-.89-2.9-1.52-4.28a14.21,14.21,0,0,0-1.23-1.89,12.25,12.25,0,0,1-1.36-1.92c-.12-.27-.29-.71-.1-1a.39.39,0,0,1,.35-.32c.32-.27,1.23.07,1.55.22a12.87,12.87,0,0,1,2.43,1.23c.35.25.72.71,1.16.84h.52c.78.17,1.67.05,2.41.27a15.67,15.67,0,0,1,3.54,1.7,21.86,21.86,0,0,1,7.68,8.41c.29.57.42,1.08.69,1.67.51,1.21,1.15,2.44,1.67,3.62A16.2,16.2,0,0,0,78,32.65c.37.51,1.84.79,2.51,1.06a18.25,18.25,0,0,1,1.7.68c.83.52,1.67,1.11,2.46,1.68.39.29,1.62.91,1.69,1.4"/><path class="cls-2" d="M88.66,64.65h.51V62.16H88.4l-.62,1.7-.68-1.7h-.74v2.49h.48V62.76h0l.71,1.89H88l.71-1.89Zm-4.11,0h.54V62.58h.71v-.42h-2v.42h.73Z"/></svg>