<svg id="Layer_1" data-name="Layer 1" xmlns="http://www.w3.org/2000/svg" viewBox="0 0 90 90"><path d="M42.05,0,40.68.15A45.08,45.08,0,0,0,8.35,18.8,44.64,44.64,0,0,0,.4,38.46,34.5,34.5,0,0,0,0,45a34.5,34.5,0,0,0,.4,6.55A45.19,45.19,0,0,0,31.18,87.92a47.87,47.87,0,0,0,9.5,2,82.62,82.62,0,0,0,8.62,0,45.61,45.61,0,0,0,16.22-4.74c.77-.4.92-.5.81-.59S63,80.08,59,74.73L51.81,65l-9-13.34c-5-7.34-9-13.34-9.07-13.34s-.07,5.92-.09,13.16c0,12.68,0,13.19-.2,13.49a1.58,1.58,0,0,1-.77.8c-.28.14-.53.16-1.86.16H29.28l-.4-.25a1.64,1.64,0,0,1-.59-.64l-.19-.4,0-17.64,0-17.64.27-.34a2.26,2.26,0,0,1,.65-.54c.36-.18.5-.19,2-.19,1.79,0,2.09.07,2.55.58.14.14,5,7.49,10.86,16.35s13.83,21,17.75,26.89l7.13,10.79.36-.24A45.91,45.91,0,0,0,79,74.56a44.75,44.75,0,0,0,10.59-23A34.4,34.4,0,0,0,90,45a34.4,34.4,0,0,0-.41-6.55A45.17,45.17,0,0,0,58.8,2.1a47.45,47.45,0,0,0-9.36-2C48.59.05,42.78,0,42.05,0ZM60.47,27.24a1.76,1.76,0,0,1,.88,1c.07.23.09,5.12.07,16.14l0,15.82L58.61,56l-2.8-4.27V40.19c0-7.43,0-11.61.09-11.82a1.79,1.79,0,0,1,.87-1.1c.36-.19.49-.21,1.88-.21s1.53,0,1.82.18Z"/></svg>