<svg xmlns="http://www.w3.org/2000/svg" xmlns:xlink="http://www.w3.org/1999/xlink" viewBox="0 0 88.1 53.95"><defs><style>.cls-1,.cls-5{fill:url(#linear-gradient);}.cls-1{clip-rule:evenodd;}.cls-2,.cls-4{fill:#679e63;}.cls-3{fill:#333;}.cls-3,.cls-4,.cls-5{fill-rule:evenodd;}.cls-6{clip-path:url(#clip-path);}.cls-7{fill:none;}.cls-8{fill:url(#linear-gradient-3);}.cls-9{fill:url(#linear-gradient-4);}.cls-10{fill:url(#linear-gradient-5);}.cls-11{fill:url(#linear-gradient-6);}.cls-12{fill:url(#linear-gradient-7);}.cls-13{fill:url(#linear-gradient-8);}</style><linearGradient id="linear-gradient" x1="35.92" y1="16.07" x2="28.34" y2="31.53" gradientUnits="userSpaceOnUse"><stop offset="0" stop-color="#3f873f"/><stop offset="0.33" stop-color="#3f8b3d"/><stop offset="0.64" stop-color="#3e9637"/><stop offset="0.93" stop-color="#3da92e"/><stop offset="1" stop-color="#3dae2b"/></linearGradient><clipPath id="clip-path"><path class="cls-1" d="M33,12.46a1,1,0,0,0-1,0l-8.39,4.85a1,1,0,0,0-.51.87v9.7a1,1,0,0,0,.51.87L32,33.6a1,1,0,0,0,1,0l8.39-4.85a1,1,0,0,0,.51-.87v-9.7a1,1,0,0,0-.51-.87Z"/></clipPath><linearGradient id="linear-gradient-3" x1="31.24" y1="24.16" x2="52.51" y2="8.45" gradientUnits="userSpaceOnUse"><stop offset="0.14" stop-color="#3f873f"/><stop offset="0.4" stop-color="#529f44"/><stop offset="0.71" stop-color="#63b649"/><stop offset="0.91" stop-color="#6abf4b"/></linearGradient><linearGradient id="linear-gradient-4" x1="22.81" y1="10.72" x2="42.21" y2="10.72" gradientUnits="userSpaceOnUse"><stop offset="0.09" stop-color="#6abf4b"/><stop offset="0.29" stop-color="#63b649"/><stop offset="0.6" stop-color="#529f44"/><stop offset="0.86" stop-color="#3f873f"/></linearGradient><linearGradient id="linear-gradient-5" x1="22.81" y1="23.03" x2="42.21" y2="23.03" xlink:href="#linear-gradient-4"/><linearGradient id="linear-gradient-6" x1="22.81" y1="28.57" x2="42.21" y2="28.57" xlink:href="#linear-gradient-4"/><linearGradient id="linear-gradient-7" x1="22.81" y1="31.07" x2="42.21" y2="31.07" xlink:href="#linear-gradient-4"/><linearGradient id="linear-gradient-8" x1="45.04" y1="15.61" x2="33.07" y2="40.02" xlink:href="#linear-gradient"/></defs><g id="Layer_2" data-name="Layer 2"><g id="Layer_1-2" data-name="Layer 1"><path class="cls-2" d="M43.54,54a1.61,1.61,0,0,1-.83-.22l-2.66-1.57c-.39-.22-.2-.3-.07-.35a5,5,0,0,0,1.2-.54.2.2,0,0,1,.2,0l2,1.21a.28.28,0,0,0,.25,0l7.95-4.59a.24.24,0,0,0,.12-.21V38.5a.22.22,0,0,0-.12-.21L43.67,33.7a.23.23,0,0,0-.25,0l-8,4.59a.24.24,0,0,0-.13.21v9.19a.24.24,0,0,0,.13.21l2.18,1.26c1.18.59,1.91-.11,1.91-.81V39.29a.23.23,0,0,1,.23-.23h1a.23.23,0,0,1,.23.23v9.06a2.21,2.21,0,0,1-2.36,2.49,3.38,3.38,0,0,1-1.83-.5l-2.09-1.2a1.7,1.7,0,0,1-.83-1.45V38.5a1.7,1.7,0,0,1,.83-1.45l8-4.59a1.71,1.71,0,0,1,1.67,0l8,4.59a1.7,1.7,0,0,1,.83,1.45v9.19a1.7,1.7,0,0,1-.83,1.45l-8,4.59A1.62,1.62,0,0,1,43.54,54Z"/><path class="cls-2" d="M46,47.63c-3.48,0-4.21-1.6-4.21-2.94a.23.23,0,0,1,.23-.23h1a.23.23,0,0,1,.23.2c.15,1,.61,1.57,2.72,1.57,1.68,0,2.39-.38,2.39-1.27,0-.51-.2-.89-2.81-1.15-2.17-.21-3.52-.69-3.52-2.43s1.35-2.57,3.62-2.57c2.55,0,3.81.89,4,2.79a.21.21,0,0,1-.06.17.21.21,0,0,1-.17.08h-1a.23.23,0,0,1-.22-.18c-.25-1.1-.85-1.46-2.49-1.46-1.83,0-2,.64-2,1.12s.25.75,2.72,1.07S50,43.18,50,44.9,48.52,47.63,46,47.63Z"/><path class="cls-2" d="M57.47,38a1.53,1.53,0,1,1-1.53-1.53A1.54,1.54,0,0,1,57.47,38Zm-2.82,0a1.29,1.29,0,1,0,1.28-1.29A1.29,1.29,0,0,0,54.65,38Zm.71-.86H56c.21,0,.61,0,.61.45a.41.41,0,0,1-.33.43c.24,0,.25.17.28.39a2.38,2.38,0,0,0,.09.45h-.36c0-.08-.07-.52-.07-.54s-.05-.15-.17-.15h-.3v.69h-.34Zm.33.75H56a.23.23,0,0,0,.26-.24c0-.23-.16-.23-.25-.23h-.27Z"/><path class="cls-3" d="M18.91,18a1,1,0,0,0-.51-.88L10,12.29a1.06,1.06,0,0,0-.46-.13H9.41a1.14,1.14,0,0,0-.47.13L.51,17.15A1,1,0,0,0,0,18L0,31.1a.49.49,0,0,0,.25.44.47.47,0,0,0,.51,0l5-2.87a1,1,0,0,0,.51-.88V21.68a1,1,0,0,1,.51-.88l2.13-1.23a1.07,1.07,0,0,1,.52-.14,1,1,0,0,1,.5.14L12.1,20.8a1,1,0,0,1,.51.88v6.11a1,1,0,0,0,.51.88l5,2.87a.47.47,0,0,0,.51,0,.51.51,0,0,0,.25-.44Z"/><path class="cls-3" d="M59.49.06a.54.54,0,0,0-.51,0,.52.52,0,0,0-.25.44V13.45a.34.34,0,0,1-.17.31.33.33,0,0,1-.36,0l-2.11-1.21a1,1,0,0,0-1,0l-8.44,4.87a1,1,0,0,0-.51.88V28a1,1,0,0,0,.51.88l8.44,4.88a1,1,0,0,0,1,0l8.44-4.88A1,1,0,0,0,65,28V3.76a1,1,0,0,0-.53-.89Zm-.78,24.78a.26.26,0,0,1-.13.22l-2.9,1.67a.28.28,0,0,1-.25,0l-2.9-1.67a.26.26,0,0,1-.13-.22V21.49a.26.26,0,0,1,.13-.22l2.9-1.67a.23.23,0,0,1,.25,0l2.9,1.67a.26.26,0,0,1,.13.22Z"/><path class="cls-3" d="M87.59,21.41a1,1,0,0,0,.51-.89V18.16a1,1,0,0,0-.51-.88L79.2,12.42a1,1,0,0,0-1,0l-8.43,4.87a1,1,0,0,0-.51.89V27.9a1,1,0,0,0,.51.89l8.39,4.78a1,1,0,0,0,1,0l5.07-2.82a.5.5,0,0,0,.26-.44.51.51,0,0,0-.26-.44L75.72,25a.5.5,0,0,1-.25-.44V21.5a.5.5,0,0,1,.25-.44l2.64-1.52a.52.52,0,0,1,.51,0l2.65,1.52a.52.52,0,0,1,.25.44v2.4a.51.51,0,0,0,.26.44.52.52,0,0,0,.51,0Z"/><path class="cls-4" d="M78.57,21a.18.18,0,0,1,.2,0l1.61.93a.21.21,0,0,1,.1.17v1.87a.19.19,0,0,1-.1.17L78.77,25a.23.23,0,0,1-.2,0L77,24.09a.19.19,0,0,1-.1-.17V22.05a.21.21,0,0,1,.1-.17Z"/><path class="cls-5" d="M33,12.46a1,1,0,0,0-1,0l-8.39,4.85a1,1,0,0,0-.51.87v9.7a1,1,0,0,0,.51.87L32,33.6a1,1,0,0,0,1,0l8.39-4.85a1,1,0,0,0,.51-.87v-9.7a1,1,0,0,0-.51-.87Z"/><g class="cls-6"><path class="cls-7" d="M32,12.46l-8.41,4.85a1,1,0,0,0-.54.87v9.7a1,1,0,0,0,.26.64l9.45-16.16A1.05,1.05,0,0,0,32,12.46Z"/><path class="cls-7" d="M32.8,33.7a.94.94,0,0,0,.23-.1l8.4-4.85a1,1,0,0,0,.53-.87v-9.7a1,1,0,0,0-.31-.7Z"/><path class="cls-8" d="M41.43,17.31,33,12.46a1.17,1.17,0,0,0-.26-.1L23.3,28.52a1.23,1.23,0,0,0,.28.23L32,33.6a1,1,0,0,0,.79.1l8.85-16.22A.87.87,0,0,0,41.43,17.31Z"/><path class="cls-7" d="M42,27.88v-9.7a1,1,0,0,0-.53-.87L33,12.46a1,1,0,0,0-.31-.11l9.23,15.76A.91.91,0,0,0,42,27.88Z"/><path class="cls-7" d="M23.58,17.31a1,1,0,0,0-.54.87v9.7a1,1,0,0,0,.54.87L32,33.6a1.06,1.06,0,0,0,.65.13l-9-16.45Z"/><polygon class="cls-9" points="31.73 10.68 31.61 10.75 31.77 10.75 31.73 10.68"/><path class="cls-10" d="M41.43,28.75a1,1,0,0,0,.5-.64L32.7,12.35a1,1,0,0,0-.71.11l-8.36,4.82,9,16.45A1,1,0,0,0,33,33.6Z"/><polygon class="cls-11" points="42.21 28.6 42.16 28.5 42.16 28.63 42.21 28.6"/><path class="cls-12" d="M41.43,28.75,33,33.6a1,1,0,0,1-.37.13l.17.3,9.33-5.4V28.5l-.23-.39A1,1,0,0,1,41.43,28.75Z"/><path class="cls-13" d="M41.43,28.75,33,33.6a1,1,0,0,1-.37.13l.17.3,9.33-5.4V28.5l-.23-.39A1,1,0,0,1,41.43,28.75Z"/></g></g></g></svg>