<svg id="Layer_1" data-name="Layer 1" xmlns="http://www.w3.org/2000/svg" xmlns:xlink="http://www.w3.org/1999/xlink" viewBox="0 0 90 90"><defs><style>.cls-1{fill:none;}.cls-2{clip-path:url(#clip-path);}.cls-3{fill:url(#radial-gradient);}.cls-4{clip-path:url(#clip-path-2);}.cls-5{fill:#777bb3;}.cls-6{fill:#fff;}</style><clipPath id="clip-path"><path class="cls-1" d="M1.8,46.19C1.8,58.74,21.14,68.91,45,68.91h0c23.86,0,43.2-10.17,43.2-22.72h0c0-12.55-19.34-22.72-43.2-22.72h0c-23.86,0-43.2,10.17-43.2,22.72"/></clipPath><radialGradient id="radial-gradient" cx="-1096.55" cy="1815.55" r="0.13" gradientTransform="matrix(453.82, 0, 0, -453.82, 497668.02, 823970.08)" gradientUnits="userSpaceOnUse"><stop offset="0" stop-color="#aeb2d5"/><stop offset="0.3" stop-color="#aeb2d5"/><stop offset="0.75" stop-color="#484c89"/><stop offset="1" stop-color="#484c89"/></radialGradient><clipPath id="clip-path-2"><rect class="cls-1" y="20.88" width="90" height="50.62"/></clipPath></defs><g id="g3438"><g id="g3440"><g class="cls-2"><g id="g3442"><g id="g3448"><g id="g3450"><path id="path3462" class="cls-3" d="M1.8,46.19C1.8,58.74,21.14,68.91,45,68.91h0c23.86,0,43.2-10.17,43.2-22.72h0c0-12.55-19.34-22.72-43.2-22.72h0c-23.86,0-43.2,10.17-43.2,22.72"/></g></g></g></g></g><g id="g3464"><g class="cls-4"><g id="g3466"><g id="g3472"><path id="path3474" class="cls-5" d="M45,67.23c22.93,0,41.51-9.42,41.51-21s-18.58-21-41.51-21-41.51,9.42-41.51,21,18.58,21,41.51,21"/></g></g></g></g><g id="g3476"><g class="cls-4"><g id="g3478"><g id="g3484"><path id="path3486" d="M25.27,48.8a6.91,6.91,0,0,0,4.18-1,5.62,5.62,0,0,0,1.81-3.5c.3-1.53.19-2.6-.33-3.18s-1.69-.89-3.43-.89h-3l-1.67,8.6ZM15.42,59.38a.45.45,0,0,1-.36-.17.44.44,0,0,1-.1-.38l4.42-22.78a.48.48,0,0,1,.46-.38h9.54c3,0,5.23.82,6.64,2.42S37.86,42,37.31,44.8A10.55,10.55,0,0,1,36.16,48a10.31,10.31,0,0,1-2.11,2.64,9.3,9.3,0,0,1-3.47,2.09,16,16,0,0,1-4.78.61H21.94L20.84,59a.46.46,0,0,1-.46.38Z"/></g><g id="g3488"><path id="path3490" class="cls-6" d="M24.88,40.67H27.5c2.1,0,2.83.46,3.08.74.41.45.49,1.41.22,2.77a5.07,5.07,0,0,1-1.63,3.21,6.48,6.48,0,0,1-3.9.94H23.39Zm4.5-5.47H19.84a.94.94,0,0,0-.92.76L14.5,58.74a.93.93,0,0,0,.19.77.94.94,0,0,0,.73.34h5a.94.94,0,0,0,.92-.76l1-5.29H25.8a16.23,16.23,0,0,0,4.92-.64A9.66,9.66,0,0,0,34.37,51a10.85,10.85,0,0,0,3.4-6.09c.58-3,.11-5.38-1.4-7.11s-3.85-2.58-7-2.58M22.25,49.27h3a7.32,7.32,0,0,0,4.47-1.13,6,6,0,0,0,2-3.78c.33-1.69.18-2.88-.45-3.58s-1.88-1-3.77-1H24.11l-1.86,9.53m7.13-13.13c2.87,0,5,.76,6.28,2.26s1.71,3.61,1.19,6.31a10.17,10.17,0,0,1-1.1,3,10,10,0,0,1-2,2.53,8.67,8.67,0,0,1-3.3,2,15.34,15.34,0,0,1-4.63.59H21.56l-1.18,6.06h-5l4.42-22.78h9.54"/></g><g id="g3492"><path id="path3494" d="M48.68,53.33a.46.46,0,0,1-.36-.17.5.5,0,0,1-.1-.39l2-10.07c.19-1,.14-1.65-.13-1.94s-.66-.48-2.12-.48H44.38L41.92,53a.47.47,0,0,1-.46.38H36.54a.48.48,0,0,1-.37-.17.49.49,0,0,1-.09-.39L40.5,30a.48.48,0,0,1,.46-.38h4.92a.48.48,0,0,1,.37.17.45.45,0,0,1,.09.39l-1.06,5.49h3.81c2.91,0,4.88.52,6,1.57s1.53,2.8,1.08,5.11L54.15,53a.48.48,0,0,1-.47.38Z"/></g><g id="g3496"><path id="path3498" class="cls-6" d="M45.88,29.15H41a.94.94,0,0,0-.92.76L35.62,52.68a.91.91,0,0,0,.19.78,1,1,0,0,0,.73.34h4.92a.94.94,0,0,0,.92-.76l2.39-12.29h3.16c1.46,0,1.77.31,1.78.33s.21.54,0,1.53l-2,10.07a.94.94,0,0,0,.92,1.12h5a1,1,0,0,0,.93-.76l2-10.6c.49-2.49.07-4.35-1.22-5.54s-3.32-1.7-6.35-1.7H45.85l.95-4.93a.91.91,0,0,0-.19-.78,1,1,0,0,0-.73-.34m0,.94-1.17,6.05h4.38q4.14,0,5.71,1.45t.94,4.67l-2.06,10.6h-5l2-10.08a2.73,2.73,0,0,0-.24-2.34,3.45,3.45,0,0,0-2.47-.63H44l-2.53,13H36.54L41,30.09h4.92"/></g><g id="g3500"><path id="path3502" d="M64,48.8a7,7,0,0,0,4.19-1,5.62,5.62,0,0,0,1.8-3.5c.3-1.53.19-2.6-.33-3.18S68,40.2,66.23,40.2h-3l-1.67,8.6ZM54.14,59.38a.46.46,0,0,1-.36-.17.44.44,0,0,1-.1-.38L58.1,36.05a.48.48,0,0,1,.47-.38H68.1c3,0,5.23.82,6.64,2.42S76.58,42,76,44.8A10.55,10.55,0,0,1,74.88,48a10.31,10.31,0,0,1-2.11,2.64,9.3,9.3,0,0,1-3.47,2.09,16,16,0,0,1-4.77.61H60.66L59.56,59a.46.46,0,0,1-.46.38Z"/></g><g id="g3504"><path id="path3506" class="cls-6" d="M63.6,40.67h2.63c2.09,0,2.82.46,3.07.74.41.45.49,1.41.22,2.77a5.07,5.07,0,0,1-1.63,3.21,6.48,6.48,0,0,1-3.9.94H62.11Zm4.5-5.47H58.57a1,1,0,0,0-.93.76L53.22,58.74a.93.93,0,0,0,.2.77.91.91,0,0,0,.72.34h5a.94.94,0,0,0,.92-.76l1-5.29h3.48a16.2,16.2,0,0,0,4.91-.64A9.66,9.66,0,0,0,73.09,51a10.85,10.85,0,0,0,3.4-6.09c.58-3,.11-5.38-1.4-7.11s-3.85-2.58-7-2.58M61,49.27h3a7.32,7.32,0,0,0,4.47-1.13,6,6,0,0,0,2-3.78c.33-1.69.18-2.88-.44-3.58s-1.89-1-3.77-1h-3.4L61,49.27M68.1,36.14c2.87,0,5,.76,6.28,2.26S76.1,42,75.57,44.71a10.16,10.16,0,0,1-1.09,3,10.46,10.46,0,0,1-2,2.53,8.71,8.71,0,0,1-3.31,2,15.31,15.31,0,0,1-4.62.59H60.28L59.1,58.92h-5l4.43-22.78H68.1"/></g></g></g></g></g></svg>