<svg id="Layer_1" data-name="Layer 1" xmlns="http://www.w3.org/2000/svg" viewBox="0 0 90 90"><defs><style>.cls-1{fill:#61dafb;}</style></defs><path class="cls-1" d="M90,45c0-6-7.47-11.61-18.91-15.12,2.64-11.66,1.46-21-3.71-23.92a8.15,8.15,0,0,0-4.09-1h0c-5,0-11.65,3.59-18.33,9.83C38.29,8.56,31.68,5,26.64,5V5a8.26,8.26,0,0,0-4.15,1c-5.15,3-6.31,12.24-3.65,23.87C7.43,33.43,0,39.07,0,45S7.47,56.62,18.91,60.13c-2.64,11.66-1.46,20.95,3.71,23.92a8.14,8.14,0,0,0,4.13,1c5,0,11.65-3.59,18.32-9.83C51.75,81.44,58.36,85,63.4,85a8.17,8.17,0,0,0,4.15-1c5.15-3,6.31-12.23,3.65-23.86C82.57,56.6,90,51,90,45ZM63.27,9h0a4.25,4.25,0,0,1,2.09.48c2.5,1.43,3.58,6.88,2.74,13.89-.21,1.72-.54,3.54-.94,5.39a88.73,88.73,0,0,0-11.65-2,88.93,88.93,0,0,0-7.63-9.17C53.85,12.07,59.46,9,63.27,9ZM28.75,54.4q1.29,2.2,2.64,4.29-3.91-.57-7.52-1.44c.68-2.37,1.52-4.81,2.47-7.25C27.1,51.47,27.88,52.93,28.75,54.4ZM23.81,32.77c2.4-.57,4.94-1.06,7.56-1.45-.9,1.42-1.8,2.87-2.64,4.35s-1.63,2.94-2.39,4.4C25.35,37.62,24.51,35.16,23.81,32.77Zm4.68,12.29c1.14-2.45,2.42-4.91,3.8-7.32s2.9-4.82,4.42-7c2.73-.24,5.5-.37,8.29-.37s5.54.13,8.26.35c1.52,2.18,3,4.51,4.43,7s2.66,4.84,3.82,7.3c-1.16,2.46-2.42,4.92-3.8,7.32s-2.9,4.83-4.42,7c-2.73.24-5.5.37-8.29.37s-5.54-.13-8.26-.35c-1.52-2.19-3-4.52-4.43-7S29.65,47.52,28.49,45.06Zm32.76,9.29c.85-1.47,1.64-3,2.39-4.42,1,2.45,1.83,4.91,2.53,7.3-2.4.58-4.93,1.08-7.56,1.46C59.51,57.28,60.41,55.83,61.25,54.35Zm0-18.73c-.85-1.47-1.75-2.9-2.65-4.3q3.91.59,7.52,1.45c-.67,2.37-1.52,4.81-2.47,7.25C62.89,38.55,62.1,37.08,61.24,35.62ZM50,26.39c-1.65-.07-3.33-.13-5-.13s-3.43,0-5.1.13a72.08,72.08,0,0,1,5-5.87A72.39,72.39,0,0,1,50,26.39ZM24.53,9.59a4,4,0,0,1,2.11-.48v0c3.79,0,9.43,3,15.41,8.55a87.13,87.13,0,0,0-7.58,9.15,85.5,85.5,0,0,0-11.67,2c-.42-1.83-.73-3.61-.95-5.32C21,16.48,22.05,11,24.53,9.59ZM19.9,56.16c-1.81-.57-3.54-1.19-5.13-1.87-6.5-2.77-10.7-6.4-10.7-9.28s4.2-6.53,10.7-9.28c1.58-.68,3.3-1.29,5.08-1.86A86.86,86.86,0,0,0,24,45.05,87,87,0,0,0,19.9,56.16ZM26.71,81a4.39,4.39,0,0,1-2.07-.49c-2.5-1.43-3.58-6.88-2.74-13.89.21-1.72.54-3.54.94-5.39a88.73,88.73,0,0,0,11.65,2,88.93,88.93,0,0,0,7.63,9.17C36.14,78,30.53,81,26.71,81ZM45,69.5a72.39,72.39,0,0,1-5.1-5.87c1.65.07,3.34.13,5,.13s3.43,0,5.1-.13A72.08,72.08,0,0,1,45,69.5ZM65.47,80.43a4.07,4.07,0,0,1-2.11.48c-3.79,0-9.43-3-15.41-8.55a87.13,87.13,0,0,0,7.58-9.15,85.5,85.5,0,0,0,11.67-2,51.06,51.06,0,0,1,1,5.34C69,73.54,68,79,65.47,80.43Zm9.74-26.14a52.78,52.78,0,0,1-5.08,1.85A87.29,87.29,0,0,0,66,45a87,87,0,0,0,4.08-11.11c1.81.56,3.54,1.19,5.15,1.87,6.5,2.77,10.7,6.4,10.7,9.28S81.71,51.54,75.21,54.29Z"/><circle class="cls-1" cx="44.98" cy="45.01" r="8.38" transform="translate(-13.8 20.64) rotate(-22.5)"/></svg>