<svg id="Layer_1" data-name="Layer 1" xmlns="http://www.w3.org/2000/svg" viewBox="0 0 90 90"><defs><style>.cls-1{fill:#cd6799;}</style></defs><path class="cls-1" d="M77.5,50.05a18.84,18.84,0,0,0-8.16,1.89,17.21,17.21,0,0,1-1.82-4.22,11.39,11.39,0,0,1-.17-3.55,32.57,32.57,0,0,1,1.07-3.83c0-.17-.19-.94-2-1s-3.37.35-3.55.83a19.45,19.45,0,0,0-.76,2.68c-.31,1.64-3.62,7.51-5.51,10.58a11.85,11.85,0,0,1-1.25-3.09,11.39,11.39,0,0,1-.16-3.55A30.63,30.63,0,0,1,56.26,43c0-.16-.2-.94-2-1s-3.37.34-3.55.82-.38,1.59-.75,2.68S45.18,56.43,44,59c-.59,1.3-1.1,2.34-1.47,3h0a.55.55,0,0,1-.06.14c-.31.6-.49.93-.49.93v0c-.25.44-.51.85-.65.85a5.55,5.55,0,0,1,0-2.79c.65-3.4,2.22-8.7,2.2-8.88s.3-1-1-1.49a1.64,1.64,0,0,0-1.86.31c-.11,0-.19.28-.19.28S42,45.42,37.8,45.42c-2.6,0-6.18,2.84-8,5.41-1.12.6-3.5,1.9-6.05,3.3l-2.91,1.59-.2-.21c-5-5.38-14.33-9.17-13.94-16.39.15-2.63,1.06-9.53,17.87-17.92,13.84-6.82,24.86-4.93,26.77-.74,2.72,6-5.91,17.1-20.21,18.71-5.46.61-8.32-1.5-9-2.28S21.26,36,21,36.18c-.46.24-.16,1,0,1.41a8.45,8.45,0,0,0,5.16,4.06c2.63.86,9,1.33,16.77-1.66,8.66-3.35,15.44-12.67,13.45-20.48S41.22,9,28.77,13.39C21.37,16,13.35,20.17,7.58,25.56.73,32-.36,37.54.09,39.88c1.59,8.28,13,13.67,17.59,17.67l-.63.34C14.77,59,6.05,63.58,3.88,68.4c-2.46,5.46.4,9.37,2.29,9.89C12,79.92,18.07,77,21.31,72.16s2.84-11.11,1.35-14l-.07-.1,1.79-1c1.17-.69,2.32-1.33,3.31-1.85a21.61,21.61,0,0,0-1.17,6c-.25,3.09,1,7.1,2.68,8.68a3,3,0,0,0,2.17.71c1.94,0,2.81-1.62,3.78-3.52,1.18-2.34,2.25-5,2.25-5s-1.33,7.33,2.29,7.33c1.31,0,2.64-1.71,3.24-2.58v0l.09-.17.22-.34v0c.52-.92,1.71-3,3.47-6.48,2.27-4.47,4.45-10.06,4.45-10.06A29.4,29.4,0,0,0,52,53.29a34.61,34.61,0,0,0,1.88,4.21c-.53.74-.86,1.15-.86,1.15l0,0c-.43.56-.89,1.16-1.4,1.76a50.5,50.5,0,0,0-4.22,5.29,1.43,1.43,0,0,0,.39,1.94A3.59,3.59,0,0,0,50,68a9.86,9.86,0,0,0,3.31-.76,10.84,10.84,0,0,0,2.84-1.49,6.37,6.37,0,0,0,2.73-5.61,11.38,11.38,0,0,0-1-4l.47-.69A75,75,0,0,0,63.29,47a28.6,28.6,0,0,0,.88,3.63,23.29,23.29,0,0,0,1.59,3.61,15.68,15.68,0,0,0-4.8,6.2c-1,3-.23,4.34,1.3,4.65a4.59,4.59,0,0,0,2.4-.49,10.73,10.73,0,0,0,3-1.56c1.76-1.3,3.45-3.11,3.35-5.56a10.49,10.49,0,0,0-.75-3.28,17.19,17.19,0,0,1,8.73-1c7.82.92,9.37,5.81,9.07,7.86a5.22,5.22,0,0,1-2.48,3.52c-.54.34-.73.46-.68.71s.33.34.79.27A6.11,6.11,0,0,0,90,60.11C90.24,55.28,85.63,50,77.5,50.05ZM17.13,70.4c-2.59,2.83-6.21,3.9-7.77,3s-1-5.15,2.17-8.14a40.63,40.63,0,0,1,6.1-4.55c.37-.24.93-.56,1.61-1l.18-.1h0l.39-.25A11.21,11.21,0,0,1,17.13,70.4ZM36,57.55c-.91,2.2-2.8,7.84-3.95,7.53-1-.27-1.59-4.54-.19-8.76A19.7,19.7,0,0,1,35,50.68c1.41-1.58,3-2.11,3.35-1.47C38.8,50.05,36.6,56.17,36,57.55ZM51.64,65c-.38.2-.74.33-.91.23s.17-.33.17-.33,2-2.1,2.73-3c.44-.56,1-1.22,1.53-2v.21C55.16,62.63,52.72,64.32,51.64,65Zm12-2.74c-.28-.2-.23-.86.71-2.91a11,11,0,0,1,2.68-3.46,4.72,4.72,0,0,1,.26,1.52A5,5,0,0,1,63.67,62.27Z"/></svg>