<svg viewBox="0 0 90 90">
	<path d="M45,.69A45,45,0,0,0,34.1,89.31a6.61,6.61,0,0,1-.35-2.19V79.43H28.09A7.84,7.84,0,0,1,21,75.64c-1.47-2.73-1.73-6.91-5.38-9.47-1.08-.85-.26-1.82,1-1.69a11.8,11.8,0,0,1,6,4.58c1.79,2.35,2.63,2.89,6,2.89a43,43,0,0,0,6.34-.46c1.23-3.12,3.36-6,6-7.35-15-1.55-22.14-9-22.14-19.12a18.44,18.44,0,0,1,5-12.13c-1-3.52-2.33-10.71.4-13.45A15.68,15.68,0,0,1,35.93,25a34,34,0,0,1,21.88,0,15.68,15.68,0,0,1,11.81-5.56c2.74,2.74,1.43,10,.38,13.48A18.36,18.36,0,0,1,75,45c0,10.11-7.14,17.56-22.1,19.11C57,66.28,60,72.32,60,76.87V87.12a7.15,7.15,0,0,1-.13,1A45,45,0,0,0,45,.69Z"/>
</svg>