<svg viewBox="0 0 90 90">
	<path d="M89.85,17.18a36.46,36.46,0,0,1-10.57,2.9A18.47,18.47,0,0,0,87.37,9.9a37,37,0,0,1-11.69,4.47A18.41,18.41,0,0,0,43.85,27a18.62,18.62,0,0,0,.48,4.19A52.26,52.26,0,0,1,6.4,11.92a18.43,18.43,0,0,0,5.69,24.57,18.49,18.49,0,0,1-8.33-2.3v.23a18.4,18.4,0,0,0,14.76,18,18.43,18.43,0,0,1-4.85.65,18.71,18.71,0,0,1-3.46-.33A18.42,18.42,0,0,0,27.4,65.56,36.9,36.9,0,0,1,4.54,73.44a37.5,37.5,0,0,1-4.39-.26,52.12,52.12,0,0,0,28.21,8.26c33.85,0,52.35-28,52.35-52.35,0-.8,0-1.59,0-2.38A37.51,37.51,0,0,0,89.85,17.18Z"/>
</svg>