<svg id="Layer_1" data-name="Layer 1" xmlns="http://www.w3.org/2000/svg" viewBox="0 0 675.53 731.76"><defs><style>.cls-1,.cls-2{isolation:isolate;}.cls-2{fill:#6f61aa;}</style></defs><g id="Group_11" data-name="Group 11" class="cls-1"><path id="Polygon_6" data-name="Polygon 6" class="cls-2" d="M343.05,521.13,464.71,399.46l166.2,44.48L675.46,610.1,553.8,731.76,387.59,687.28Z"/><path id="Polygon_7" data-name="Polygon 7" class="cls-2" d="M172,626.44l60.83-60.83,83.11,22.24,22.27,83.08-60.83,60.83-83.1-22.24Z"/><path id="Polygon_8" data-name="Polygon 8" class="cls-2" d="M312.92,170.71l85.34-85.27,116.55,31.14L546,233l-85.34,85.27L344.13,287.11Z"/><path id="Polygon_14" data-name="Polygon 14" class="cls-2" d="M156.15,448.35,217,387.52l83.1,22.24,22.28,83.07-60.83,60.84-83.11-22.25Z"/><path id="Polygon_9" data-name="Polygon 9" class="cls-2" d="M326.2,417.47,356,387.73l40.7,10.84,10.88,40.57-29.82,29.74L337.08,458Z"/><path id="Polygon_18" data-name="Polygon 18" class="cls-2" d="M288.53,343.92l29.82-29.74L359.05,325l10.88,40.57-29.82,29.74-40.7-10.83Z"/><path id="Polygon_12" data-name="Polygon 12" class="cls-2" d="M198.65,57.61,256.41,0l78.84,21,21.07,78.6-57.76,57.61-78.84-21Z"/><path id="Polygon_13" data-name="Polygon 13" class="cls-2" d="M0,374.45l60-60.09,82,22,22,82.11-60,60.09-82-22Z"/><path id="Polygon_15" data-name="Polygon 15" class="cls-2" d="M163.72,231.61l60-60.09,82,22,22,82.11-60,60.1-82-22Z"/><path id="Polygon_17" data-name="Polygon 17" class="cls-2" d="M55.7,252.32l38.41-38.26L146.51,228l14,52.16-38.41,38.26L69.69,304.48Z"/><path id="Polygon_10" data-name="Polygon 10" class="cls-2" d="M463.85,334.46l29.82-29.74,40.69,10.83,10.88,40.57-29.82,29.74L474.72,375Z"/><path id="Polygon_11" data-name="Polygon 11" class="cls-2" d="M380.8,350.06l29.82-29.73,40.69,10.83,10.88,40.57-29.82,29.74-40.7-10.83Z"/></g></svg>