<svg id="Layer_1" data-name="Layer 1" xmlns="http://www.w3.org/2000/svg" viewBox="0 0 777 681.62"><defs><style>.cls-1{fill:#6f61aa;isolation:isolate;}</style></defs><g id="Group_10" data-name="Group 10"><path id="Polygon_6" data-name="Polygon 6" class="cls-1" d="M258,383l86,149L258,681H86L0,532,86,383Z"/><path id="Polygon_7" data-name="Polygon 7" class="cls-1" d="M240,208l43,74.5L240,357H154l-43-74.5L154,208Z"/><path id="Polygon_8" data-name="Polygon 8" class="cls-1" d="M716.75,333,777,437.5,716.75,542H596.25L536,437.5,596.25,333Z"/><path id="Polygon_14" data-name="Polygon 14" class="cls-1" d="M322,0l43,74.5L322,149H236L193,74.5,236,0Z"/><path id="Polygon_9" data-name="Polygon 9" class="cls-1" d="M355,310l21,36.5L355,383H313l-21-36.5L313,310Z"/><path id="Polygon_12" data-name="Polygon 12" class="cls-1" d="M355,198l21,36.5L355,271H313l-21-36.5L313,198Z"/><path id="Polygon_13" data-name="Polygon 13" class="cls-1" d="M523.5,68,566,141.5,523.5,215h-85L396,141.5,438.5,68Z"/><path id="Polygon_15" data-name="Polygon 15" class="cls-1" d="M523.5,248,566,321.5,523.5,395h-85L396,321.5,438.5,248Z"/><path id="Polygon_17" data-name="Polygon 17" class="cls-1" d="M647,193l27,47-27,47H593l-27-47,27-47Z"/><path id="Path_4" data-name="Path 4" class="cls-1" d="M422,503l21,36.5L422,576H380l-21-36.5L380,503Z"/><path id="Polygon_16" data-name="Polygon 16" class="cls-1" d="M496,430l21,36.5L496,503H454l-21-36.5L454,430Z"/><path id="Polygon_11" data-name="Polygon 11" class="cls-1" d="M402,400l21,36.5L402,473H360l-21-36.5L360,400Z"/></g></svg>